<svg width="734" height="640" viewBox="0 0 734 640" fill="none" xmlns="http://www.w3.org/2000/svg" xmlns:xlink="http://www.w3.org/1999/xlink">
<rect width="734" height="640" fill="url(#pattern0)"/>
<defs>
<pattern id="pattern0" patternContentUnits="objectBoundingBox" width="1" height="1">
<use xlink:href="#image0" transform="translate(-0.00408719) scale(0.0013624 0.0015625)"/>
</pattern>
<image id="image0" width="740" height="640" xlink:href="./img/home.jpg"/>
</defs>
<path d="M224 526L444.8 534L514 520.3V542L445.5 561.7L224 550.7V526Z" fill="#3595F6" fill-opacity="0.75"/>
<path d="M224 526V501L444.3 504.3L514 501V521L444.7 534L224 526Z" fill="#3595F6" fill-opacity="0.75"/>
<path d="M224 501V476H445H514V499L446 506L224 501Z" fill="#3595F6" fill-opacity="0.75"/>
<path d="M224 477V452L445.3 448.3L513 455V477H445" fill="#3595F6" fill-opacity="0.75"/>
<path d="M224 452V426L445.5 422.7L514 433.7V455L445 448.3L224 452Z" fill="#3595F6" fill-opacity="0.75"/>
<path d="M224 427V403.3L445 391L516 414V435.3L445 423L224 427Z" fill="#3595F6" fill-opacity="0.75"/>
<path d="M224 405V380L446.2 363.7L516 392.3V413L445.7 391.3L224 405Z" fill="#3595F6" fill-opacity="0.75"/>
<path d="M224 381V356L446.5 335.7L516 372.3V393L444 364.3L224 381Z" fill="#3595F6" fill-opacity="0.75"/>
<path d="M224 357V333L447 308.3L516 352.3V374L446.7 336L224 357Z" fill="#3595F6" fill-opacity="0.75"/>
<path d="M224 333V309L446.5 280.3L516 331.3V352L445.7 309.7L224 333Z" fill="#3595F6" fill-opacity="0.75"/>
<path d="M224 309V285L446.3 252L517 311.3V331L447 280.3L224 309Z" fill="#3595F6" fill-opacity="0.75"/>
<path d="M224 285V261L445.2 226L515 290V311L446.3 252.7L224 285Z" fill="#3595F6" fill-opacity="0.75"/>
<path d="M224 262V237L446.3 199L515 269.3V290L446 226L224 262Z" fill="#3595F6" fill-opacity="0.75"/>
<path d="M224 239V214L444.8 170.3L515 249.3V272L446 198.7L224 239Z" fill="#3595F6" fill-opacity="0.75"/>
<path d="M224 215V190L444 142L514 227V250L443.3 170.7L224 215Z" fill="#3595F6" fill-opacity="0.75"/>
<path d="M224 190V165L443.8 113L515 205.3V228L445.3 141.7L224 190Z" fill="#3595F6" fill-opacity="0.75"/>
<path d="M224 165V139L446 82.3L515 184V205L445.7 113.3L224 165Z" fill="#3595F6" fill-opacity="0.75"/>
</svg>
